<?xml version="1.0" encoding="UTF-8" standalone="no"?>
<!-- Created with Inkscape (http://www.inkscape.org/) -->
<svg id="svg2" xmlns:rdf="http://www.w3.org/1999/02/22-rdf-syntax-ns#" xmlns="http://www.w3.org/2000/svg" height="530" width="480" version="1.0" xmlns:cc="http://web.resource.org/cc/" xmlns:xlink="http://www.w3.org/1999/xlink" xmlns:dc="http://purl.org/dc/elements/1.1/">
 <metadata id="metadata69">
  <rdf:RDF>
   <cc:Work rdf:about="">
    <dc:format>image/svg+xml</dc:format>
    <dc:type rdf:resource="http://purl.org/dc/dcmitype/StillImage"/>
   </cc:Work>
  </rdf:RDF>
 </metadata>
 <defs id="defs5">
  <linearGradient id="linearGradient5479">
   <stop id="stop5481" stop-color="#fff" stop-opacity=".80412" offset="0"/>
   <stop id="stop5483" stop-color="#fff" stop-opacity="0" offset="1"/>
  </linearGradient>
  <radialGradient id="radialGradient1941" xlink:href="#linearGradient5479" gradientUnits="userSpaceOnUse" cy="147.48" cx="353.38" gradientTransform="matrix(1 .0000011357 -8.6663e-8 .076305 -24.81 -97.659)" r="44.017"/>
  <radialGradient id="radialGradient1957" xlink:href="#linearGradient5479" gradientUnits="userSpaceOnUse" cy="273.52" cx="228.4" gradientTransform="matrix(.44573 0 0 .44573 102.6 134.31)" r="12.374"/>
  <linearGradient id="linearGradient3201" y2="138.74" gradientUnits="userSpaceOnUse" x2="179.38" gradientTransform="translate(0,10)" y1="190.4" x1="145.38">
   <stop id="stop3197" stop-color="#ffff25" offset="0"/>
   <stop id="stop3199" stop-color="#ffff25" stop-opacity="0" offset="1"/>
  </linearGradient>
  <linearGradient id="linearGradient3283" y2="117.89" gradientUnits="userSpaceOnUse" x2="142.79" gradientTransform="translate(2.1717 5.0051)" y1="168.84" x1="110.73">
   <stop id="stop3279" stop-color="#f03031" offset="0"/>
   <stop id="stop3281" stop-color="#f03031" stop-opacity="0" offset="1"/>
  </linearGradient>
  <linearGradient id="linearGradient3497" y2="328" gradientUnits="userSpaceOnUse" x2="323.15" y1="329.57" x1="277.99">
   <stop id="stop3493" stop-color="#26b144" offset="0"/>
   <stop id="stop3495" stop-color="#26b144" stop-opacity="0" offset="1"/>
  </linearGradient>
  <filter id="filter3591" height="1.2195" width="1.4187" y="-.10974" x="-.20935">
   <feGaussianBlur id="feGaussianBlur3593" stdDeviation="2.462712"/>
  </filter>
  <linearGradient id="linearGradient3603" y2="261.17" gradientUnits="userSpaceOnUse" x2="309.04" gradientTransform="translate(0,10)" y1="277.76" x1="271.04">
   <stop id="stop3599" stop-color="#d82b2c" offset="0"/>
   <stop id="stop3601" stop-color="#d82b2c" stop-opacity="0" offset="1"/>
  </linearGradient>
  <filter id="filter3689" height="1.257" width="1.2714" y="-.12848" x="-.13572">
   <feGaussianBlur id="feGaussianBlur3691" stdDeviation="1.7438784"/>
  </filter>
  <filter id="filter3725" height="1.3907" width="1.8212" y="-.19535" x="-.41060">
   <feGaussianBlur id="feGaussianBlur3727" stdDeviation="2.3842501"/>
  </filter>
  <filter id="filter3753" height="1.3519" width="1.2238" y="-.17597" x="-.11189">
   <feGaussianBlur id="feGaussianBlur3755" stdDeviation="1.9832045"/>
  </filter>
  <filter id="filter4266" height="1.4796" width="1.1972" y="-.23978" x="-.098588">
   <feGaussianBlur id="feGaussianBlur4268" stdDeviation="13.774305"/>
  </filter>
 </defs>
 <g id="layer3">
  <path id="path3757" opacity=".6" style="color:#000000" d="m76.531 399.59l176.75 112.61 70-38.92-39.26-21.7 125.37-80.94-171.06-128.4-141.39 92.09 26.81 25.69-47.219 39.57z" fill-rule="evenodd" filter="url(#filter4266)"/>
 </g>
 <g id="layer2">
  <path id="path2769" d="m135.08 99.938l55.68-34.238c4.61-2.833 6.91-3.14 10.06-2.625-0.09-3.046 2.13-6.692 5.94-9.062l52.73-32.758c3.48-2.163 6.94-2.03 9.28 0l57.4 49.851c2.91 3.174 2.06 5.708 0.64 8.268 3.53-0.915 7.43-0.914 10.87 2.077l56.95 49.409c3.27 2.84 3.74 8.5 2.83 11.75 2.42-1.52 7.94-1.13 11.05 1.68l59.75 54.01c2.3 2.07 3.22 5.92 0.79 10.96l-26.39 53.88c-0.69 1.22-1.31 1.49-2.97 2.47 1.9-0.11 1.36 2.47 0.66 4.07l-20.59 41.78c-1.1 2.07-3.37 3.9-5.63 5.06 1.7 0.19 1.99 1.87 1.21 3.39l-16.2 34.57c-0.8 1.67-1.9 3.41-4.24 5.47l-46.12 34.12c-0.75 0.3-1.47 1.62-2.85 0.12 0.23 2.26-1 3.47-2.91 5.27l-28.49 22.71-208.66-103.22 22.45-207.89c0.78-7.25 3.84-9.32 6.76-11.122z" fill-rule="evenodd"/>
  <g id="g5545" opacity=".7" fill-rule="evenodd" transform="translate(-24.241 -16.8)">
   <path id="path2777" d="m488.82 230.85l-22.09 44.91c-0.76 1.6-3.2 4.42-4.27 5.23l-37.61 27.61c-2.11 1.6-3-0.33-1.56-3.48l14.42-34.26c1.31-2.86 2.77-5.6 5-7.41l43.34-33.52c2.34-1.91 3.81-1.27 2.77 0.92z" fill="#2ac44b"/>
   <path id="path3664" d="m426.25 279.8l-19.35 41.43c-0.72 1.55-2.37 2.86-3.76 3.95l-45.59 35.89c-2.76 2.18-3.17-0.52-1.83-3.67l14.07-33.21c1.18-2.78 2.63-5.1 4.8-6.8l47.6-37.2c2.28-1.79 5.04-2.5 4.06-0.39z" fill="#fff"/>
   <path id="path3666" d="m462.59 286.77l-18.97 38.84c-0.7 1.46-1.41 2.65-2.74 3.67l-41.42 31.14c-3.15 2.42-3.54 0.94-1.98-2.3l16.21-33.69c1.25-2.58 2.48-4.87 4.56-6.45l41.19-31.31c2.19-1.66 4.1-1.89 3.15 0.1z" fill="#fff"/>
   <path id="path4553" d="m401.55 334.31l-17.83 38.05c-0.7 1.48-2.43 2.78-5.76 5.46l-45.47 36.64 14.45-37.35c1.04-2.7 3.01-5.12 5.08-6.75l45.16-35.67c2.18-1.73 5.32-2.4 4.37-0.38z" fill="#ffff25"/>
   <path id="path4555" d="m378.33 386.89l-10.66 25.04c-0.34 1.08-1.18 2.5-2.18 3.16l-33.57 26.2-16.11-8.94 58.85-46.82c3.35-2.67 4.28-0.02 3.67 1.36z" fill="#ffff25"/>
   <path id="path4559" d="m436.51 338.65l-15.95 33.22c-0.65 1.38-4.49 4.53-5.73 5.49l-38.21 28.15c-1.25 0.63-2.22 0.84-1.39-0.76l13.76-29.97c1.13-2.45 3.34-5.1 5.3-6.59l38.95-29.55c2.06-1.56 4.17-1.87 3.27 0.01z" fill="#e88a1a"/>
  </g>
  <g id="g5553" fill-rule="evenodd" transform="translate(-24.241 -16.8)">
   <path id="path1891" d="m236.2 72.574l51.32-32.476c1.91-1.212 3.71-0.583 4.9 0.434l50.33 43.282c2.02 1.819 1.92 5.086-0.4 6.293l-48.39 32.293c-1.72 1.16-5.26 1.25-6.69 0l-51.44-45.116c-1.49-1.218-1.22-3.53 0.37-4.71z" fill="#ffff25"/>
   <path id="path2781" d="m377.33 198l46.05-34.84c1.79-1.35 6.12-0.92 7.29 0.09l54.69 48.54c1.42 1.23 2.13 5.29 0.62 6.5l-46.81 34.71c-1.61 1.29-6.59 1.27-8.38-0.35l-54.17-48.76c-1.42-1.28-0.85-4.71 0.71-5.89z" fill="#ffff25"/>
   <path id="path3668" d="m307.28 135.55l47.57-32.56c1.85-1.27 6.14-1.07 7.31-0.06l50.7 43.84c2.31 1.99 2.15 5.93 0.58 7.07l-46.43 33.44c-3.25 2.34-6.63 1.48-9.09-0.74l-50.87-45.83c-1.42-1.28-1.39-4.05 0.23-5.16z" fill="#2ac44b"/>
   <path id="path1872" d="m166.18 117.5l52.27-32.606c3.21-2.136 6.24-1.616 8.54 0.427l48.16 42.809c2.6 2.31 2.71 7.03 0.05 8.92l-47.58 33c-3.25 2.3-8.28 1.29-10.7-0.95l-49.79-46.01c-1.39-1.28-2.57-4.51-0.95-5.59z" fill="#2ac44b"/>
   <path id="path2765" d="m238.65 180.96l48.97-33.56c1.82-1.25 6.02-1.06 7.15-0.06l49.6 43.37c4.34 3.79 4.15 8.95 1.55 10.82l-55.93 40.3-52.79-52.89c-2.77-2.78-0.76-6.47 1.45-7.98z" fill="#2ac44b"/>
   <path id="path2767" d="m312.61 248.69l48.81-36.12c1.76-1.3 6.02-1.08 7.13-0.06l52.83 48.58c2.19 2.01 2.06 5.73 0.57 6.89l-48.92 37.96c-3.08 2.39-6.5 1.48-8.86-0.72l-51.78-48.33c-2.48-2.32-2.18-6.42 0.22-8.2z" fill="#2ac44b"/>
  </g>
  <path id="path4565" d="m316.51 387.7c-1.17-5.67-3.5-11-3.5-11s4.08-3.83 2-13.25l-31.31-141.38c-2.11-9.53-5.12-15.89-17.32-20.5l-176.75-66.87c-1.867-1.36-10.159-3.29-15.77 0.19l-55.351 34.31c-4.068 2.52-8.268 6.51-4.375 18.5l19 58.5c1.523 4.69 8.875 7.19 8.875 7.19s-4.932 3.94-2.375 11.81l19.125 58.88c0.872 3.84 5.647 6.13 5.647 6.13s-3.659 1.5-1.772 7.24l15.75 47.88c1.614 4.9 3.002 10.51 8.25 13.62l45.996 27.25c4.89 2.82 5.92-1.46 5.92-1.46s-0.53 3.62 4.67 7.05l50.54 30.04c7.14 4.17 10.98-1.26 10.98-1.26s-2.85 4.25 5.26 8.98l49.69 29.05c4.56 2.67 8.63 2.18 12.82-1.15l52.78-41.94c3.43-2.73 4.24-4.5 2.61-12.73l-11.39-55.08z" fill-rule="evenodd"/>
  <g id="g1996" fill-rule="evenodd" transform="translate(0,10)">
   <path id="path2775" d="m147.57 208.52l51.08-35.89c3.04-2.02 7.89-1.56 11.6 0.05l51.48 20.04c3.44 1.49 3.64 4.8 1.25 6.44l-54.05 36.24c-4.27 2.94-8.71 2.97-12.26 1.35l-47.94-19.47c-4.54-2.06-5.51-5.86-1.16-8.76z" fill="#355ee5"/>
   <path id="path4574" d="m81.827 181.52l50.393-33.69c2.98-1.94 7.32-1.59 10.98-0.11l43.13 16.37c4.78 1.93 2.95 5.31 0.62 6.9l-49.93 33.93c-4.18 2.86-8.49 3.89-11.96 2.33l-43.562-17.11c-4.442-1.99-4.963-5.17 0.329-8.62z" fill="#ffff25"/>
   <path id="path4576" d="m23.542 159.36l49.834-31.37c4.351-2.68 9.058-2.95 12.637-1.5l34.787 13.57c4.66 1.88 3.52 4.97 1.18 6.45l-50.704 32.56c-4.189 2.65-6.501 2.68-9.922 1.22l-39.745-16.16c-2.699-1.15-0.521-3.26 1.933-4.77z" fill="#f03031"/>
  </g>
  <g id="g5571" opacity=".8" fill-rule="evenodd" transform="translate(-24.241 -16.8)">
   <path id="path2773" d="m192.4 347.71l13.74 53.99c0.9 3.54 3.97 7.19 9 9.56l43.24 20.38c4.31 2.03 8.55 3.13 6.35-5.52l-13.78-54.06c-1.29-5.04-5.05-6.54-7.78-7.85l-45.11-21.65c-2.87-1.38-7.19-0.84-5.66 5.15z" fill="#f03031"/>
   <path id="path4572" d="m163.92 261.47l16.18 54.43c1.02 3.44 2.96 7.84 9.57 10.85l43.87 19.98c4.25 1.94 7.78 2.31 5.5-6.15l-14.57-56.23c-1.33-4.92-2.71-7.84-7.23-9.69l-47.76-20.68c-5.77-2.36-7.73 0.16-5.56 7.49z" fill="#fff"/>
   <path id="path4578" d="m214.66 428.4l11.39 41.86c0.88 3.36 2.46 10.19 6.98 12.92l45.97 26.65c3.88 2.33 5.74-2.1 3.95-8.84l-12.04-46.58c-1.27-4.77-4.76-7.6-7.29-8.97l-44.57-21.92c-4.14-2.24-5.88-0.79-4.39 4.88z" fill="#355ee5"/>
   <path id="path4580" d="m100.98 236.8l15.6 49.62c1.04 3.25 3.82 9.43 10.11 12.32l37.74 17.37c4.05 1.86 7.64 1.42 5.24-6.57l-14.76-49.05c-1.4-4.65-3.24-10.17-7.52-12.01l-40.41-17.39c-5.45-2.35-8.232-1.22-6 5.71z" fill="#355ee5"/>
   <path id="path4582" d="m42.137 210.5l15.124 46.86c1.46 5.53 2.577 8.11 6.562 10.1l37.067 15.74c5.09 1.65 4.94-1.21 2.53-9l-13.026-43.6c-1.4-4.53-4.089-9.48-8.281-11.26l-34.108-14.42c-5.34-2.26-7.98-1.22-5.868 5.58z" fill="#2ac44b"/>
   <path id="path4584" d="m129.02 320.09l13.54 46.51c0.96 3.29 3.26 6.86 9.39 10.13l37.62 20.04c3.94 2.1 5.82 0.34 4.53-4.68l-12.41-48.24c-1.22-4.72-2.14-9.05-6.35-11.09l-41.01-19.83c-5.88-2.85-7.35 0.14-5.31 7.16z" fill="#e88a1a"/>
   <path id="path5471" d="m68.131 288.28l15.117 48.65c1.353 5.45 2.579 7.17 8.607 10.02l33.565 16.51c3.87 1.84 5.31-0.11 3.75-5.46l-14.09-49.93c-1.31-4.5-3.73-9.35-7.84-11.16l-35.911-17.15c-4.478-1.97-5.375 1.84-3.198 8.52z" fill="#355ee5"/>
   <path id="path5473" d="m148.77 396.61l12.74 42.31c0.94 3.21 3.98 6.66 9.82 10.1l37.36 21.89c3.76 2.22 6.63 0.99 5.34-3.91l-12.13-45.94c-1.22-4.61-2.41-8.21-6.45-10.35l-41.25-21.57c-7.86-4.16-7.57 0.13-5.43 7.47z" fill="#fff"/>
   <path id="path5475" d="m91.292 362.65l13.358 41.41c0.97 3.2 2.34 7.22 8.16 10.68l36.23 21.26c3.74 2.23 6.3-0.04 4.97-4.71l-13.92-44.39c-1.3-4.57-3.62-7.43-7.59-9.67l-37.126-20.83c-5.55-3.14-6.152-0.57-4.082 6.25z" fill="#ffff25"/>
  </g>
  <path id="path5477" d="m209.92 256.22c0 3.05-2.47 5.52-5.52 5.52-3.04 0-5.51-2.47-5.51-5.52 0-3.04 2.47-5.51 5.51-5.51 3.05 0 5.52 2.47 5.52 5.51z" fill-rule="evenodd" fill="url(#radialGradient1957)"/>
  <use id="use5487" opacity=".6" xlink:href="#path5477" transform="translate(-110.31 26.163)" height="550" width="544" y="0" x="0"/>
  <use id="use5489" opacity=".9" xlink:href="#path5477" transform="translate(24.395 85.56)" height="550" width="544" y="0" x="0"/>
  <use id="use5491" opacity=".4" xlink:href="#path5477" transform="translate(-87.328 102.53)" height="550" width="544" y="0" x="0"/>
  <use id="use5493" opacity=".5" xlink:href="#path5477" transform="translate(-26.163 135.76)" height="550" width="544" y="0" x="0"/>
  <use id="use5495" opacity=".6" xlink:href="#path5477" transform="translate(42.426 167.58)" height="550" width="544" y="0" x="0"/>
  <use id="use5497" xlink:href="#path5477" transform="translate(-71.064 -30.052)" height="550" width="544" y="0" x="0"/>
  <use id="use5499" xlink:href="#path5477" transform="translate(-134.7 -56.569)" height="550" width="544" y="0" x="0"/>
  <use id="use5501" opacity=".6" xlink:href="#path5477" transform="translate(-45.255 53.74)" height="550" width="544" y="0" x="0"/>
  <use id="use5503" xlink:href="#path5477" transform="translate(-8.4853 -93.338)" height="550" width="544" y="0" x="0"/>
  <use id="use5505" xlink:href="#path5477" transform="translate(60.811 -143.54)" height="550" width="544" y="0" x="0"/>
  <use id="use5507" xlink:href="#path5477" transform="translate(131.52 -78.489)" height="550" width="544" y="0" x="0"/>
  <use id="use5509" xlink:href="#path5477" transform="translate(205.06 -12.728)" height="550" width="544" y="0" x="0"/>
  <use id="use5511" xlink:href="#path5477" transform="translate(135.06 40.305)" height="550" width="544" y="0" x="0"/>
  <rect id="rect5513" opacity=".7" fill-rule="evenodd" transform="rotate(41.302)" height="12.374" width="88.035" y="-92.592" x="284.55" fill="url(#radialGradient1941)"/>
  <use id="use5527" opacity=".5" xlink:href="#rect5513" transform="matrix(.99909 .042549 -.042549 .99909 15.741 108.21)" height="550" width="544" y="0" x="0"/>
  <use id="use5529" opacity=".5" xlink:href="#rect5513" transform="translate(76.5,67)" height="550" width="544" y="0" x="0"/>
  <use id="use5531" opacity=".3" xlink:href="#rect5513" transform="translate(-69.5,-65)" height="550" width="544" y="0" x="0"/>
  <use id="use5533" opacity=".4" xlink:href="#rect5513" transform="translate(-138,-15)" height="550" width="544" y="0" x="0"/>
  <use id="use5535" opacity=".3" xlink:href="#rect5513" transform="matrix(.78879 -.38434 .18192 .89141 -162.96 196.79)" height="550" width="544" y="0" x="0"/>
  <use id="use5537" opacity=".4" xlink:href="#rect5513" transform="matrix(.79534 -.37059 .16642 .89443 -95.702 218.9)" height="550" width="544" y="0" x="0"/>
  <use id="use5539" opacity=".2" xlink:href="#rect5513" transform="matrix(.78879 -.38434 .18192 .89141 -224.07 170.53)" height="550" width="544" y="0" x="0"/>
  <use id="use5543" opacity=".9" xlink:href="#rect5513" transform="matrix(.42194 .69078 -.85714 .092892 334.54 100.68)" height="550" width="544" y="0" x="0"/>
  <g id="g5566" opacity=".9" fill-rule="evenodd" transform="translate(-24.241 -16.8)">
   <path id="path2771" d="m300.25 241.48l12.24 57.32c0.79 3.68-0.36 9.64-2.61 11.3l-50.95 37.22c-5.56 4.09-8.61-0.11-9.33-3.01l-15.09-60.4c-1.29-5.18 1.76-8.78 4.34-10.52l52.05-35.11c2.72-1.83 8.23-2.07 9.35 3.2z" fill="#f03031"/>
   <path id="path4561" d="m320.38 325.64l12.15 56.54c0.8 3.49-1.47 8.82-3.56 10.47l-45.78 35.27c-3.47 2.76-9.91 2.66-10.89-1.32l-13.76-57.93c-1.21-4.95 2.3-9.45 4.66-11.24l48.51-34.36c3.19-2.41 7.53-2.43 8.67 2.57z" fill="#2ac44b"/>
   <path id="path4563" d="m337.92 407.54l11.6 53.46c0.73 3.44-0.57 7.81-2.62 9.43l-46.12 36.51c-5.09 4.02-8.13 2.07-9.11-1.83l-12.93-54.65c-1.22-4.84 2.72-8.09 5.05-9.83l45.63-35.12c3.14-2.36 7.46-2.9 8.5 2.03z" fill="#ffff25"/>
  </g>
 </g>
 <g id="layer1" fill-rule="evenodd">
  <path id="path3193" style="color:#000000" d="m145.38 151.03c17.71 7.23 25.43 7.44 42.53 17.73l-6.14-10.08c4.64 6.4-14.4-14.09-21.7-16.48-4.56-0.93 2.97-1.63-14.69 8.83z" filter="url(#filter3753)" fill="url(#linearGradient3201)"/>
  <path id="path3275" style="color:#000000" d="m136.57 115.28l-8.01 27.48 9.03 7.34c-2.03-1.19 13.57-12.92 13.27-20.23-0.35-8.5-11.65-12.77-14.29-14.59z" filter="url(#filter3725)" fill="url(#linearGradient3283)"/>
  <path id="path3489" style="color:#000000" d="m301 292.82l14 59.2 0.77-13.16-5.22-6.52 9.56 3.91c5.64-19.57 5.65-37.9 0.87-55.16l-19.98 11.73z" transform="matrix(1 0 0 1.0786 0 -17.613)" filter="url(#filter3591)" fill="url(#linearGradient3497)"/>
  <path id="path3595" style="color:#000000" d="m288.4 257.65l6.95 32.57c6.26-4.99 8.76-11.37 19.59-7.23l-26.54-25.34z" filter="url(#filter3689)" fill="url(#linearGradient3603)"/>
 </g>
</svg>
